<svg data-v-fde0c5aa="" xmlns="http://www.w3.org/2000/svg" viewBox="0 0 300 300" class="iconAbove"><!----><defs data-v-fde0c5aa=""><!----></defs><rect data-v-fde0c5aa="" fill="#F7F0DE" x="0" y="0" width="300px" height="300px" class="logo-background-square"></rect><defs data-v-fde0c5aa=""><!----></defs><g data-v-fde0c5aa="" id="4d5e43e2-f181-4f17-9e7d-dfcf51b37062" fill="#7D6463" transform="matrix(3.11223631528065,0,0,3.11223631528065,17.914801616820917,166.4688658513665)"><path d="M1.99 3.60L0.67 4.16L0.67 12.74L1.99 12.14L1.99 3.60ZM4.42 6.38L3.11 6.89L3.11 12.73L4.48 12.15L4.48 8.05L4.48 8.05Q5.15 7.22 6.13 7.37L6.13 7.37L6.13 7.37Q7.12 7.53 7.08 8.48L7.08 8.48L7.08 12.77L8.42 12.18L8.42 8.25L8.42 8.25Q8.51 7.35 7.85 6.87L7.85 6.87L7.85 6.87Q7.19 6.40 6.22 6.56L6.22 6.56L6.22 6.56Q5.26 6.72 4.42 7.73L4.42 7.73L4.42 6.38ZM9.99 5.29L9.99 5.29L9.99 7.05L8.87 8.11L10.11 8.11L10.12 12.76L11.36 12.23L11.37 8.09L12.10 8.09L13.91 6.99L11.33 6.99L11.33 5.22L11.33 5.22Q11.29 4.33 11.72 4.42L11.72 4.42L11.72 4.42Q12.15 4.51 12.35 5.26L12.35 5.26L13.43 4.40L13.43 4.40Q13.60 3.68 12.29 3.58L12.29 3.58L12.29 3.58Q10.99 3.47 9.99 5.29ZM16.45 6.48L16.45 6.48L16.45 6.48Q15.34 6.51 14.63 7.03L14.63 7.03L14.63 7.03Q13.92 7.55 13.60 8.19L13.60 8.19L13.60 8.19Q13.28 8.84 13.26 9.76L13.26 9.76L13.26 9.76Q13.23 10.68 13.92 11.62L13.92 11.62L13.92 11.62Q14.62 12.56 15.62 12.71L15.62 12.71L15.62 12.71Q16.63 12.85 17.49 12.33L17.49 12.33L17.49 12.33Q18.35 11.80 18.79 11.12L18.79 11.12L18.79 11.12Q19.22 10.45 19.24 9.35L19.24 9.35L19.24 9.35Q19.26 8.26 18.41 7.36L18.41 7.36L18.41 7.36Q17.57 6.46 16.45 6.48ZM16.16 7.44L16.16 7.44L16.16 7.44Q17.20 7.82 17.63 8.91L17.63 8.91L17.63 8.91Q18.05 9.99 18.00 10.67L18.00 10.67L18.00 10.67Q17.94 11.34 17.37 11.71L17.37 11.71L17.37 11.71Q16.80 12.08 15.86 11.56L15.86 11.56L15.86 11.56Q14.91 11.05 14.60 9.91L14.60 9.91L14.60 9.91Q14.30 8.77 14.71 7.92L14.71 7.92L14.71 7.92Q15.11 7.07 16.16 7.44ZM21.40 6.38L20.08 6.89L20.08 12.73L21.46 12.15L21.46 8.05L21.46 8.05Q22.12 7.22 23.11 7.37L23.11 7.37L23.11 7.37Q24.09 7.53 24.06 8.48L24.06 8.48L24.05 12.77L25.39 12.18L25.39 8.25L25.39 8.25Q25.48 7.35 24.82 6.87L24.82 6.87L24.82 6.87Q24.17 6.40 23.20 6.56L23.20 6.56L23.20 6.56Q22.23 6.72 21.39 7.73L21.39 7.73L21.40 6.38ZM29.56 6.51L29.56 6.51L29.56 6.51Q28.48 6.35 27.54 7.19L27.54 7.19L27.54 7.19Q26.60 8.03 26.34 9.15L26.34 9.15L26.34 9.15Q26.07 10.27 26.42 11.09L26.42 11.09L26.42 11.09Q26.77 11.91 27.35 12.28L27.35 12.28L27.35 12.28Q27.93 12.66 28.72 12.71L28.72 12.71L28.72 12.71Q29.52 12.76 30.29 12.08L30.29 12.08L30.29 12.08Q31.06 11.41 31.51 10.54L31.51 10.54L31.42 10.47L31.42 10.47Q30.37 11.57 29.29 11.52L29.29 11.52L29.29 11.52Q28.21 11.47 27.87 10.85L27.87 10.85L29.81 9.78L29.81 9.78Q31.26 8.81 30.95 7.75L30.95 7.75L30.95 7.75Q30.65 6.68 29.56 6.51ZM27.34 8.16L27.34 8.16L27.34 8.16Q27.58 7.66 28.19 7.40L28.19 7.40L28.19 7.40Q28.81 7.14 29.35 7.68L29.35 7.68L29.35 7.68Q29.90 8.21 29.73 8.90L29.73 8.90L29.73 8.90Q29.57 9.60 27.66 10.57L27.66 10.57L27.66 10.57Q27.35 10.04 27.23 9.35L27.23 9.35L27.23 9.35Q27.10 8.67 27.34 8.16ZM36.25 9.39L37.60 12.74L38.80 11.98L38.69 11.66L40.29 6.67L39.83 6.47L38.39 11.04L36.44 6.41L35.31 7.06L35.96 8.69L35.18 11.04L33.23 6.41L32.09 7.06L34.39 12.74L35.59 11.98L35.48 11.66L36.25 9.39ZM43.66 6.48L43.66 6.48L43.66 6.48Q42.96 6.57 42.59 6.79L42.59 6.79L42.59 6.79Q42.22 7.01 41.90 7.38L41.90 7.38L41.90 7.38Q41.58 7.76 41.57 8.38L41.57 8.38L41.57 8.38Q41.56 9.00 42.00 9.39L42.00 9.39L42.00 9.39Q42.45 9.77 43.73 10.21L43.73 10.21L43.73 10.21Q45.01 10.64 45.14 11.06L45.14 11.06L45.14 11.06Q45.27 11.48 44.96 11.76L44.96 11.76L44.96 11.76Q44.64 12.04 44.06 11.97L44.06 11.97L44.06 11.97Q43.48 11.90 43.05 11.61L43.05 11.61L43.05 11.61Q42.62 11.32 42.34 10.93L42.34 10.93L42.34 10.93Q42.06 10.55 41.99 10.27L41.99 10.27L40.93 11.06L40.93 11.06Q41.17 11.58 41.51 11.93L41.51 11.93L41.51 11.93Q41.86 12.28 42.39 12.50L42.39 12.50L42.39 12.50Q42.92 12.71 43.67 12.75L43.67 12.75L43.67 12.75Q44.41 12.78 44.99 12.37L44.99 12.37L44.99 12.37Q45.57 11.96 45.88 11.48L45.88 11.48L45.88 11.48Q46.18 11.01 46.16 10.52L46.16 10.52L46.16 10.52Q46.14 10.04 45.73 9.63L45.73 9.63L45.73 9.63Q45.32 9.21 43.95 8.75L43.95 8.75L43.95 8.75Q42.59 8.29 42.53 7.87L42.53 7.87L42.53 7.87Q42.47 7.44 43.01 7.29L43.01 7.29L43.01 7.29Q43.55 7.14 44.29 7.53L44.29 7.53L44.29 7.53Q45.03 7.93 44.98 8.16L44.98 8.16L45.84 7.25L45.84 7.25Q45.58 6.82 44.97 6.60L44.97 6.60L44.97 6.60Q44.37 6.39 43.66 6.48ZM52.25 12.19L52.25 12.19L52.25 6.49L50.93 7.03L50.93 11.16L50.93 11.16Q50.42 11.79 49.46 11.74L49.46 11.74L49.46 11.74Q48.49 11.69 48.41 10.73L48.41 10.73L48.42 6.51L47.12 7.17L47.12 10.96L47.12 10.96Q47.12 11.91 47.78 12.35L47.78 12.35L47.78 12.35Q48.45 12.80 49.17 12.68L49.17 12.68L49.17 12.68Q49.90 12.56 50.99 11.48L50.99 11.48L50.99 13.11L50.99 13.11Q51.03 14.06 50.69 14.39L50.69 14.39L50.69 14.39Q50.35 14.72 49.54 14.63L49.54 14.63L49.54 14.63Q48.73 14.53 47.90 13.36L47.90 13.36L47.04 14.57L47.04 14.57Q48.93 16.19 50.60 15.05L50.60 15.05L50.60 15.05Q52.27 13.90 52.25 12.19ZM54.53 10.55L53.35 11.52L54.24 12.69L55.45 11.70L54.53 10.55ZM57.57 14.64L56.32 15.11L56.32 6.95L57.57 6.54L57.57 7.26L57.57 7.26Q58.84 6.08 60.15 6.64L60.15 6.64L60.15 6.64Q61.46 7.19 61.87 8.53L61.87 8.53L61.87 8.53Q62.28 9.87 61.45 11.08L61.45 11.08L61.45 11.08Q60.61 12.29 59.52 12.62L59.52 12.62L59.52 12.62Q58.43 12.95 57.57 12.44L57.57 12.44L57.57 14.64ZM59.24 11.87L59.24 11.87L59.24 11.87Q60.13 12.05 60.73 11.34L60.73 11.34L60.73 11.34Q61.33 10.63 60.94 9.41L60.94 9.41L60.94 9.41Q60.55 8.19 59.58 7.75L59.58 7.75L59.58 7.75Q58.61 7.31 57.57 7.73L57.57 7.73L57.57 11.33L57.85 11.07L57.85 11.07Q58.34 11.70 59.24 11.87ZM64.04 6.51L62.77 7.03L62.77 12.73L64.09 12.12L64.09 8.05L64.09 8.05Q64.74 7.22 65.32 7.37L65.32 7.37L65.32 7.37Q65.91 7.53 65.99 8.26L65.99 8.26L67.22 7.46L67.22 7.46Q67.08 6.62 66.07 6.50L66.07 6.50L66.07 6.50Q65.05 6.38 64.03 7.73L64.03 7.73L64.04 6.51ZM70.83 6.51L70.83 6.51L70.83 6.51Q69.75 6.35 68.81 7.19L68.81 7.19L68.81 7.19Q67.87 8.03 67.60 9.15L67.60 9.15L67.60 9.15Q67.34 10.27 67.69 11.09L67.69 11.09L67.69 11.09Q68.04 11.91 68.62 12.28L68.62 12.28L68.62 12.28Q69.20 12.66 69.99 12.71L69.99 12.71L69.99 12.71Q70.79 12.76 71.56 12.08L71.56 12.08L71.56 12.08Q72.32 11.41 72.78 10.54L72.78 10.54L72.69 10.47L72.69 10.47Q71.63 11.57 70.56 11.52L70.56 11.52L70.56 11.52Q69.48 11.47 69.14 10.85L69.14 10.85L71.08 9.78L71.08 9.78Q72.53 8.81 72.22 7.75L72.22 7.75L72.22 7.75Q71.91 6.68 70.83 6.51ZM68.61 8.16L68.61 8.16L68.61 8.16Q68.85 7.66 69.46 7.40L69.46 7.40L69.46 7.40Q70.08 7.14 70.62 7.68L70.62 7.68L70.62 7.68Q71.17 8.21 71.00 8.90L71.00 8.90L71.00 8.90Q70.83 9.60 68.93 10.57L68.93 10.57L68.93 10.57Q68.62 10.04 68.50 9.35L68.50 9.35L68.50 9.35Q68.37 8.67 68.61 8.16ZM75.99 6.48L75.99 6.48L75.99 6.48Q75.29 6.57 74.92 6.79L74.92 6.79L74.92 6.79Q74.55 7.01 74.23 7.38L74.23 7.38L74.23 7.38Q73.91 7.76 73.90 8.38L73.90 8.38L73.90 8.38Q73.88 9.00 74.33 9.39L74.33 9.39L74.33 9.39Q74.78 9.77 76.06 10.21L76.06 10.21L76.06 10.21Q77.33 10.64 77.47 11.06L77.47 11.06L77.47 11.06Q77.60 11.48 77.28 11.76L77.28 11.76L77.28 11.76Q76.97 12.04 76.38 11.97L76.38 11.97L76.38 11.97Q75.80 11.90 75.37 11.61L75.37 11.61L75.37 11.61Q74.94 11.32 74.67 10.93L74.67 10.93L74.67 10.93Q74.39 10.55 74.32 10.27L74.32 10.27L73.26 11.06L73.26 11.06Q73.49 11.58 73.84 11.93L73.84 11.93L73.84 11.93Q74.19 12.28 74.72 12.50L74.72 12.50L74.72 12.50Q75.25 12.71 76.00 12.75L76.00 12.75L76.00 12.75Q76.74 12.78 77.32 12.37L77.32 12.37L77.32 12.37Q77.90 11.96 78.20 11.48L78.20 11.48L78.20 11.48Q78.51 11.01 78.49 10.52L78.49 10.52L78.49 10.52Q78.47 10.04 78.06 9.63L78.06 9.63L78.06 9.63Q77.64 9.21 76.28 8.75L76.28 8.75L76.28 8.75Q74.92 8.29 74.86 7.87L74.86 7.87L74.86 7.87Q74.80 7.44 75.34 7.29L75.34 7.29L75.34 7.29Q75.88 7.14 76.62 7.53L76.62 7.53L76.62 7.53Q77.36 7.93 77.31 8.16L77.31 8.16L78.17 7.25L78.17 7.25Q77.90 6.82 77.30 6.60L77.30 6.60L77.30 6.60Q76.69 6.39 75.99 6.48ZM81.71 6.48L81.71 6.48L81.71 6.48Q81.01 6.57 80.64 6.79L80.64 6.79L80.64 6.79Q80.27 7.01 79.95 7.38L79.95 7.38L79.95 7.38Q79.63 7.76 79.62 8.38L79.62 8.38L79.62 8.38Q79.60 9.00 80.05 9.39L80.05 9.39L80.05 9.39Q80.50 9.77 81.78 10.21L81.78 10.21L81.78 10.21Q83.06 10.64 83.19 11.06L83.19 11.06L83.19 11.06Q83.32 11.48 83.01 11.76L83.01 11.76L83.01 11.76Q82.69 12.04 82.11 11.97L82.11 11.97L82.11 11.97Q81.53 11.90 81.09 11.61L81.09 11.61L81.09 11.61Q80.66 11.32 80.39 10.93L80.39 10.93L80.39 10.93Q80.11 10.55 80.04 10.27L80.04 10.27L78.98 11.06L78.98 11.06Q79.21 11.58 79.56 11.93L79.56 11.93L79.56 11.93Q79.91 12.28 80.44 12.50L80.44 12.50L80.44 12.50Q80.97 12.71 81.72 12.75L81.72 12.75L81.72 12.75Q82.46 12.78 83.04 12.37L83.04 12.37L83.04 12.37Q83.62 11.96 83.92 11.48L83.92 11.48L83.92 11.48Q84.23 11.01 84.21 10.52L84.21 10.52L84.21 10.52Q84.19 10.04 83.78 9.63L83.78 9.63L83.78 9.63Q83.36 9.21 82.00 8.75L82.00 8.75L82.00 8.75Q80.64 8.29 80.58 7.87L80.58 7.87L80.58 7.87Q80.52 7.44 81.06 7.29L81.06 7.29L81.06 7.29Q81.60 7.14 82.34 7.53L82.34 7.53L82.34 7.53Q83.08 7.93 83.03 8.16L83.03 8.16L83.89 7.25L83.89 7.25Q83.62 6.82 83.02 6.60L83.02 6.60L83.02 6.60Q82.41 6.39 81.71 6.48Z"></path></g><defs data-v-fde0c5aa=""><!----></defs><g data-v-fde0c5aa="" id="588650b5-3010-44ae-8a56-a31e527d7cd8" stroke="none" fill="#AF9594" transform="matrix(2.3238949496543992,0,0,2.3238949496543992,112.81768080552962,85.22652120829441)"><path d="M16 32c8.837 0 16-7.163 16-16S24.837 0 16 0 0 7.163 0 16s7.163 16 16 16zM14.817 6.421h2v8.886h8.887v2H14.817V6.421zm-5.959.437h2v14.283h14.283v2H8.858V6.858z"></path></g><!----></svg>